<svg width="10" height="10" viewBox="0 0 10 10" fill="none" xmlns="http://www.w3.org/2000/svg">
<path d="M5.50679 7.8872V7.3999C5.50679 7.02991 5.585 6.69001 5.74142 6.38018C5.90085 6.06735 6.13096 5.81768 6.43176 5.63118C6.73557 5.44168 7.10556 5.34692 7.54172 5.34692C7.9839 5.34692 8.35539 5.44017 8.65619 5.62667C8.96 5.81317 9.18861 6.06283 9.34202 6.37567C9.49844 6.68549 9.57665 7.02691 9.57665 7.3999V7.8872C9.57665 8.25719 9.49844 8.5986 9.34202 8.91143C9.1856 9.22126 8.95549 9.46942 8.65168 9.65592C8.34787 9.84542 7.97788 9.94017 7.54172 9.94017C7.09954 9.94017 6.72805 9.84542 6.42725 9.65592C6.12645 9.46942 5.89784 9.22126 5.74142 8.91143C5.585 8.5986 5.50679 8.25719 5.50679 7.8872ZM6.8198 7.3999V7.8872C6.8198 8.10077 6.87093 8.30231 6.97321 8.49181C7.07849 8.68132 7.26799 8.77607 7.54172 8.77607C7.81545 8.77607 8.00195 8.68282 8.10121 8.49632C8.20349 8.30983 8.25462 8.10678 8.25462 7.8872V7.3999C8.25462 7.18031 8.20649 6.97577 8.11024 6.78626C8.01398 6.59676 7.82447 6.502 7.54172 6.502C7.271 6.502 7.083 6.59676 6.97772 6.78626C6.87244 6.97577 6.8198 7.18031 6.8198 7.3999ZM0.764648 2.5991V2.1118C0.764648 1.7388 0.844361 1.39739 1.00379 1.08757C1.16321 0.774731 1.39332 0.525066 1.69413 0.338569C1.99794 0.152071 2.36492 0.0588226 2.79506 0.0588226C3.24025 0.0588226 3.61324 0.152071 3.91405 0.338569C4.21485 0.525066 4.44346 0.774731 4.59988 1.08757C4.75629 1.39739 4.8345 1.7388 4.8345 2.1118V2.5991C4.8345 2.97209 4.75479 3.3135 4.59536 3.62333C4.43895 3.93315 4.20883 4.18132 3.90502 4.36781C3.60422 4.5513 3.23423 4.64305 2.79506 4.64305C2.35589 4.64305 1.9844 4.5498 1.68059 4.3633C1.37979 4.1738 1.15118 3.92563 0.994762 3.61882C0.841353 3.30899 0.764648 2.96908 0.764648 2.5991ZM2.08667 2.1118V2.5991C2.08667 2.81868 2.13781 3.02172 2.24008 3.20822C2.34536 3.39472 2.53036 3.48797 2.79506 3.48797C3.0718 3.48797 3.2598 3.39472 3.35907 3.20822C3.46134 3.02172 3.51248 2.81868 3.51248 2.5991V2.1118C3.51248 1.89221 3.46435 1.68767 3.36809 1.49816C3.27183 1.30866 3.08083 1.2139 2.79506 1.2139C2.52735 1.2139 2.34236 1.31016 2.24008 1.50267C2.13781 1.69519 2.08667 1.89823 2.08667 2.1118ZM1.36024 9.61982L7.71318 0.379177H8.89533L2.54239 9.61982H1.36024Z" fill="white"/>
</svg>
